<svg id="Layer_1" data-name="Layer 1" xmlns="http://www.w3.org/2000/svg" viewBox="0 0 744.2 744.19"><defs><style>.cls-1{fill:#eaebeb;}.cls-2{fill:#fefefe;}.cls-3{fill:#29a1c5;}</style></defs><title>2222</title><path class="cls-1" d="M305-152h46c.3,2.09,1.9,1.92,3.41,2a334.74,334.74,0,0,1,57.4,8.48A368.35,368.35,0,0,1,531.54-89.86a362.64,362.64,0,0,1,65.67,55.32,381.55,381.55,0,0,1,36,44.4,366.85,366.85,0,0,1,37,67.66,355.17,355.17,0,0,1,17.66,53.39c5.49,23.07,9.66,46.36,10.09,70.18,0,1.44.26,2.67,2,2.91v33c-1.74.24-2,1.47-2,2.92.26,7.66-1.41,15.17-1.88,22.76-1,15.94-6.3,31.16-7.38,47.06,0,.46-.88.86-1.35,1.28,0-17.78-5.26-34.07-14-49.4-12.79-22.46-30-41.11-49.81-57.46s-39.77-32.48-64.17-41.8c-1.54-.59-3-1.74-4.13-1.37,4.44,4.9,8.81,9.91,13.35,14.74,13.37,14.22,24.59,29.78,31,48.47,12.28,36-3.18,73.18-37.16,90.2-23.46,11.75-48.72,14.37-74.26,15.28-25,.88-50-.66-74.85-2.87-19.39-1.72-38.87-3.32-57.87-7.78a1038.88,1038.88,0,0,1-160.94-52.17c-35.43-14.72-70.08-31.09-102.81-51.15-34.09-20.89-63.17-47.75-89-78.09A331.34,331.34,0,0,1-25,101c2.05-.15,2.1-1.94,2.55-3.26A341.72,341.72,0,0,1,.55,45.3,372,372,0,0,1,184.94-122.43a347.76,347.76,0,0,1,55.32-18.31c20.32-4.73,40.87-8.48,61.83-9.26C303.53-150,304.76-150.26,305-152ZM278.56-41.53c3.74,1.06,7.49,2.06,11.21,3.2,52.79,16.23,93.74,48.42,124.38,93.79,35.61,52.73,50.59,111.39,47.86,174.73-.67,15.59-4.58,30.57-9.32,45.37-1.14,3.58-2.95,5.28-7,5.7a288.3,288.3,0,0,1-49.86,1.07,293.09,293.09,0,0,1-92.93-21.76c-30.53-12.66-56.85-31.83-81.86-53-2-1.71-4.15-4.16-6.9-1.82s-2.48,5.21-.83,8.17a43.74,43.74,0,0,0,8.78,11.43c25.62,23.21,53.95,42.33,85.52,56.52,38.27,17.18,78.31,26.85,120.3,28,17.83.48,35.62-.1,53.29-2.8s35.38-6.32,52.48-12c3.73-1.25,5.45-3.59,6.35-7.41,7.63-32.37,10.3-65,7.06-98.2-5.53-56.67-24.58-108-61.22-152C438.16-19.87,377.45-49.38,302-45.82A86.3,86.3,0,0,0,278.56-41.53ZM307.35-3.62a103.85,103.85,0,0,0-29.55-5c-44.51-1.76-82.66,13.52-114.67,44.08-42.07,40.16-61.69,91.13-69.88,147.44-.32,2.15-.08,3.81,2.09,5q10.69,6,21.23,12.19c2.49,1.47,3.6.92,3.88-1.91.4-4,.83-7.95,1.39-11.9,6.5-45.65,21.54-87.92,50.25-124.55C196.14,31,226.46,9.51,264.83.34,278.82-3,293.05-3.78,307.35-3.62Z" transform="translate(44.1 152.1)"/><path class="cls-1" d="M-44,244V196c2.09-.31,2-1.89,2-3.41.2-13.79,2.58-27.33,5.18-40.8,1.35-7,1.77-14.38,5.26-20.9,1.4,1.85,2.87,3.64,4.18,5.55C3.63,181.86,41,221.19,85.77,253.17c5.24,3.74,7.47,7.9,8.43,14.09,5.57,36,18.12,69.25,41.09,97.93,24.65,30.8,55.51,51,95.84,54.22,3.46.28,7,.93,11.69-.64a121.77,121.77,0,0,1-25.41-13c-40.77-27.59-62.7-67.47-74.2-114.11-.18-.75-.35-1.88,0-2.32,1-1.14,2.12,0,3.1.4,10.46,4.77,21,9.4,31.33,14.39,25.06,12.1,50.36,23.66,76.26,33.86a1096.71,1096.71,0,0,0,148.23,46.25c1.68.4,4.27,0,4.81,1.93s-1.84,2.91-3.12,4.11a239.43,239.43,0,0,1-45.65,33.87c-40.09,22.65-83,33-129.1,29.08-6.78-.58-13.55-1.44-20.53-2.19.21.73.21.93.31,1A6.27,6.27,0,0,0,210,453c61.89,36.54,126.74,43.62,194.38,18.64,38.12-14.07,70-37.46,96.61-68.12a10.38,10.38,0,0,1,7.57-4c27.69-2.33,55.52-3.22,82.92-8.49,19.72-3.79,39.07-8.37,56.48-19,10.53-6.44,19-15,26.88-24.35.4,1.75-.33,3.31-.91,4.84a369.52,369.52,0,0,1-63,106.21,378.28,378.28,0,0,1-48.11,47.61,371,371,0,0,1-56.05,37.86,359.08,359.08,0,0,1-82.47,33.6c-25.17,6.7-50.72,11.52-76.9,12.14-1.52,0-3.1-.09-3.41,2H311c-.31-2.09-1.89-2-3.41-2-4.81-.06-9.58-.39-14.39-.85a380.13,380.13,0,0,1-52.83-8.92A359.26,359.26,0,0,1,151,545.54,373.33,373.33,0,0,1-23.16,339.68,350.76,350.76,0,0,1-42,247.41C-42.09,245.9-41.91,244.3-44,244Z" transform="translate(44.1 152.1)"/><path class="cls-3" d="M-41.49,108A29,29,0,0,1-42.12,96c1.57-2.17,3.95-3.32,6.07-4.79L-32,92.52l7,8.49A331.34,331.34,0,0,0,2.67,137.62c25.88,30.34,55,57.2,89.05,78.09,32.73,20.06,67.38,36.43,102.81,51.15A1038.88,1038.88,0,0,0,355.47,319c19,4.46,38.48,6.06,57.87,7.78,24.89,2.21,49.86,3.75,74.85,2.87,25.54-.91,50.8-3.53,74.26-15.28,34-17,49.44-54.19,37.16-90.2-6.37-18.69-17.59-34.25-31-48.47-4.54-4.83-8.91-9.84-13.35-14.74,1.11-.37,2.59.78,4.13,1.37,24.4,9.32,44.4,25.44,64.17,41.8s37,35,49.81,57.46c8.73,15.33,14,31.62,14,49.4-.95,13.34-5.51,25.45-12.53,36.72-7.88,9.31-16.35,17.91-26.88,24.35-17.41,10.64-36.76,15.22-56.48,19-27.4,5.27-55.23,6.16-82.92,8.49a10.38,10.38,0,0,0-7.57,4c-26.59,30.66-58.49,54.05-96.61,68.12-67.64,25-132.49,17.9-194.38-18.64a6.27,6.27,0,0,1-1.13-.94c-.1-.09-.1-.29-.31-1,7,.75,13.75,1.61,20.53,2.19,46.1,4,89-6.43,129.1-29.08a239.43,239.43,0,0,0,45.65-33.87c1.28-1.2,3.66-2.17,3.12-4.11s-3.13-1.53-4.81-1.93A1096.71,1096.71,0,0,1,254,338c-25.9-10.2-51.2-21.76-76.26-33.86-10.35-5-20.87-9.62-31.33-14.39-1-.44-2.08-1.54-3.1-.4-.4.44-.23,1.57,0,2.32,11.5,46.64,33.43,86.52,74.2,114.11a121.77,121.77,0,0,0,25.41,13c-4.7,1.57-8.23.92-11.69.64-40.33-3.24-71.19-23.42-95.84-54.22-23-28.68-35.52-61.93-41.09-97.93-1-6.19-3.19-10.35-8.43-14.09C41,221.19,3.63,181.86-27.38,136.44c-1.31-1.91-2.78-3.7-4.18-5.55l-9.3-18.84a1.64,1.64,0,0,0-.48-1.94Z" transform="translate(44.1 152.1)"/><path class="cls-3" d="M278.56-41.53A86.3,86.3,0,0,1,302-45.82c75.45-3.56,136.16,26,183.9,83.22,36.64,43.95,55.69,95.32,61.22,152,3.24,33.15.57,65.83-7.06,98.2-.9,3.82-2.62,6.16-6.35,7.41-17.1,5.72-34.68,9.32-52.48,12s-35.46,3.28-53.29,2.8c-42-1.14-82-10.81-120.3-28-31.57-14.19-59.9-33.31-85.52-56.52a43.74,43.74,0,0,1-8.78-11.43c-1.65-3-1.78-6,.83-8.17s4.87.11,6.9,1.82c25,21.19,51.33,40.36,81.86,53a293.09,293.09,0,0,0,92.93,21.76,288.3,288.3,0,0,0,49.86-1.07c4-.42,5.83-2.12,7-5.7,4.74-14.8,8.65-29.78,9.32-45.37,2.73-63.34-12.25-122-47.86-174.73C383.51,10.09,342.56-22.1,289.77-38.33,286.05-39.47,282.3-40.47,278.56-41.53Z" transform="translate(44.1 152.1)"/><path class="cls-3" d="M307.35-3.62c-14.3-.16-28.53.62-42.52,4C226.46,9.51,196.14,31,172.09,61.72c-28.71,36.63-43.75,78.9-50.25,124.55-.56,3.95-1,7.93-1.39,11.9-.28,2.83-1.39,3.38-3.88,1.91Q106,193.86,95.34,187.89c-2.17-1.22-2.41-2.88-2.09-5,8.19-56.31,27.81-107.28,69.88-147.44,32-30.56,70.16-45.84,114.67-44.08A103.85,103.85,0,0,1,307.35-3.62Z" transform="translate(44.1 152.1)"/><path class="cls-1" d="M-32,92.52-36,91.2C-33.86,89.08-33,91.05-32,92.52Z" transform="translate(44.1 152.1)"/><path class="cls-1" d="M-41.34,110.11a1.64,1.64,0,0,1,.48,1.94C-41.78,111.6-42.26,111-41.34,110.11Z" transform="translate(44.1 152.1)"/></svg>